<svg xmlns="http://www.w3.org/2000/svg" xmlns:xlink="http://www.w3.org/1999/xlink" viewBox="0 0 129.69 18.78"><defs><linearGradient id="a" x1="16.87" y1="3.34" x2="-2.18" y2="25.69" gradientUnits="userSpaceOnUse"><stop offset="0.15" stop-color="#e9b843"/><stop offset="0.32" stop-color="#e3b439"/><stop offset="0.55" stop-color="#fdd35c"/><stop offset="0.66" stop-color="#f9e76e"/><stop offset="0.81" stop-color="#f5ef8d"/><stop offset="1" stop-color="#f9f3a4"/></linearGradient><linearGradient id="b" x1="5.31" y1="8.29" x2="24.12" y2="0.76" gradientUnits="userSpaceOnUse"><stop offset="0.07" stop-color="#e9b843"/><stop offset="0.32" stop-color="#e3b439"/><stop offset="0.55" stop-color="#fdd35c"/><stop offset="0.66" stop-color="#f9e76e"/><stop offset="0.81" stop-color="#f5ef8d"/><stop offset="1" stop-color="#f9f3a4"/></linearGradient></defs><path d="M41.67,14.61v2.78a2.72,2.72,0,0,1-.11.89,1.35,1.35,0,0,1-.4.6,3.41,3.41,0,0,1-.74.51,11.26,11.26,0,0,1-2.54,1,10.15,10.15,0,0,1-2.66.33,8.71,8.71,0,0,1-3-.51,6.36,6.36,0,0,1-3.84-3.88,8.8,8.8,0,0,1-.52-3.12,9.25,9.25,0,0,1,.5-3.1A6.42,6.42,0,0,1,29.8,7.76a6.32,6.32,0,0,1,2.39-1.5,9.08,9.08,0,0,1,3.19-.52,8,8,0,0,1,2.6.39,5.84,5.84,0,0,1,1.83,1,4.5,4.5,0,0,1,1.06,1.26,2.54,2.54,0,0,1,.36,1.18,1.28,1.28,0,0,1-.41.95,1.41,1.41,0,0,1-1,.39,1.34,1.34,0,0,1-.61-.15,1.41,1.41,0,0,1-.49-.42A11.93,11.93,0,0,0,37.81,9a3,3,0,0,0-1-.74A3.84,3.84,0,0,0,35.16,8a4.38,4.38,0,0,0-1.82.35,3.63,3.63,0,0,0-1.37,1A4.52,4.52,0,0,0,31.09,11a7.25,7.25,0,0,0-.3,2.15A5.84,5.84,0,0,0,32,17.1a4.05,4.05,0,0,0,3.27,1.38,6.65,6.65,0,0,0,1.92-.27A9.28,9.28,0,0,0,39,17.45V15.09H36.7a2.49,2.49,0,0,1-1.25-.25A.89.89,0,0,1,35,14a1,1,0,0,1,.36-.8,1.36,1.36,0,0,1,1-.32h3.34a4.36,4.36,0,0,1,1,.11,1.14,1.14,0,0,1,.69.49A1.93,1.93,0,0,1,41.67,14.61Z" transform="translate(-1.59 -2.16)" fill="#489bd5"/><path d="M54.42,15.26A6.4,6.4,0,0,1,54,17.49a4.77,4.77,0,0,1-2.79,2.88,6.07,6.07,0,0,1-2.23.39,5.92,5.92,0,0,1-2.21-.39,5,5,0,0,1-1.7-1.14A4.89,4.89,0,0,1,44,17.49a6.4,6.4,0,0,1-.37-2.23A6.48,6.48,0,0,1,44,13a4.83,4.83,0,0,1,1.08-1.74,4.67,4.67,0,0,1,1.71-1.12A6,6,0,0,1,49,9.76a5.9,5.9,0,0,1,2.23.4A4.69,4.69,0,0,1,53,11.29,4.89,4.89,0,0,1,54.05,13,6.36,6.36,0,0,1,54.42,15.26Zm-2.72,0A4.12,4.12,0,0,0,51,12.68a2.39,2.39,0,0,0-2-.92,2.45,2.45,0,0,0-1.4.41,2.66,2.66,0,0,0-.93,1.22,4.88,4.88,0,0,0-.33,1.87,4.94,4.94,0,0,0,.32,1.85,2.71,2.71,0,0,0,.93,1.22,2.4,2.4,0,0,0,1.41.42,2.37,2.37,0,0,0,2-.93A4.06,4.06,0,0,0,51.7,15.26Z" transform="translate(-1.59 -2.16)" fill="#489bd5"/><path d="M56.55,19.12V7.38a1.84,1.84,0,0,1,.36-1.23,1.22,1.22,0,0,1,1-.41,1.26,1.26,0,0,1,1,.41,1.76,1.76,0,0,1,.38,1.23V19.12a1.78,1.78,0,0,1-.38,1.23,1.32,1.32,0,0,1-1,.41,1.24,1.24,0,0,1-1-.42A1.87,1.87,0,0,1,56.55,19.12Z" transform="translate(-1.59 -2.16)" fill="#489bd5"/><path d="M69.47,19.22V19a7.59,7.59,0,0,1-1.08,1,4.21,4.21,0,0,1-1.15.6,4.45,4.45,0,0,1-1.35.2,4,4,0,0,1-1.8-.41,4.22,4.22,0,0,1-1.43-1.17,5.28,5.28,0,0,1-.92-1.8,7.61,7.61,0,0,1-.31-2.23,5.77,5.77,0,0,1,1.24-4,4.09,4.09,0,0,1,3.26-1.42,4.35,4.35,0,0,1,2,.4,5.72,5.72,0,0,1,1.57,1.23v-4a2.06,2.06,0,0,1,.33-1.26,1.12,1.12,0,0,1,.94-.42,1.18,1.18,0,0,1,1,.39A1.73,1.73,0,0,1,72,7.28V19.22a1.66,1.66,0,0,1-.35,1.15,1.21,1.21,0,0,1-.93.39,1.16,1.16,0,0,1-.91-.4A1.66,1.66,0,0,1,69.47,19.22Zm-5.33-4a4.73,4.73,0,0,0,.34,1.87,2.66,2.66,0,0,0,.94,1.17,2.41,2.41,0,0,0,2.6,0A2.5,2.5,0,0,0,69,17.16a4.51,4.51,0,0,0,.36-1.92A4.41,4.41,0,0,0,69,13.38,2.78,2.78,0,0,0,68,12.19a2.28,2.28,0,0,0-1.31-.41,2.22,2.22,0,0,0-1.33.42,2.68,2.68,0,0,0-.9,1.21A4.74,4.74,0,0,0,64.14,15.24Z" transform="translate(-1.59 -2.16)" fill="#489bd5"/><path d="M87.31,15.92A3.87,3.87,0,0,1,87,17.43,5.32,5.32,0,0,1,85.89,19,5.56,5.56,0,0,1,84,20.28a6.83,6.83,0,0,1-2.66.48,9,9,0,0,1-2.09-.22,5.62,5.62,0,0,1-1.71-.68,5.51,5.51,0,0,1-1.41-1.21,7.57,7.57,0,0,1-1-1.53,8.38,8.38,0,0,1-.61-1.81,10.23,10.23,0,0,1-.2-2,9,9,0,0,1,.51-3.14,6.76,6.76,0,0,1,1.46-2.38,6.5,6.5,0,0,1,2.23-1.5,7.32,7.32,0,0,1,2.73-.51,6.78,6.78,0,0,1,3.14.7,5.69,5.69,0,0,1,2.11,1.74,3.43,3.43,0,0,1,.74,2,1.28,1.28,0,0,1-.36.89,1.13,1.13,0,0,1-.86.38,1.19,1.19,0,0,1-.85-.26,3.76,3.76,0,0,1-.63-.92,4.43,4.43,0,0,0-1.35-1.62,3.29,3.29,0,0,0-1.92-.54,3.48,3.48,0,0,0-2.89,1.38,6.24,6.24,0,0,0-1.08,3.92,7.21,7.21,0,0,0,.48,2.82,3.59,3.59,0,0,0,1.35,1.68,3.71,3.71,0,0,0,2,.55,3.6,3.6,0,0,0,2.15-.63,3.82,3.82,0,0,0,1.32-1.85,2.89,2.89,0,0,1,.47-.93,1,1,0,0,1,.89-.36,1.25,1.25,0,0,1,.9.36A1.24,1.24,0,0,1,87.31,15.92Z" transform="translate(-1.59 -2.16)" fill="#489bd5"/><path d="M92.41,7.38v4a5.75,5.75,0,0,1,1-.94,3.72,3.72,0,0,1,1.08-.52,4.77,4.77,0,0,1,1.28-.17,3.75,3.75,0,0,1,1.83.44,3.1,3.1,0,0,1,1.25,1.26,3.3,3.3,0,0,1,.39,1.09,8.11,8.11,0,0,1,.1,1.38v5.19A1.84,1.84,0,0,1,99,20.35a1.29,1.29,0,0,1-1,.41c-.89,0-1.34-.55-1.34-1.64V14.55a4.31,4.31,0,0,0-.38-2,1.53,1.53,0,0,0-1.47-.7,2.21,2.21,0,0,0-1.3.41,2.47,2.47,0,0,0-.87,1.13,7,7,0,0,0-.22,2.15v3.58a1.83,1.83,0,0,1-.36,1.22,1.26,1.26,0,0,1-1,.42c-.89,0-1.34-.55-1.34-1.64V7.38a1.81,1.81,0,0,1,.36-1.23,1.19,1.19,0,0,1,1-.41,1.26,1.26,0,0,1,1,.41A1.84,1.84,0,0,1,92.41,7.38Z" transform="translate(-1.59 -2.16)" fill="#489bd5"/><path d="M109.58,15.92h-5.3a3.53,3.53,0,0,0,.38,1.63,2.55,2.55,0,0,0,1,1.06,2.52,2.52,0,0,0,1.32.36,3.14,3.14,0,0,0,.89-.12,3,3,0,0,0,.78-.35,7.76,7.76,0,0,0,.69-.52l.82-.76a.9.9,0,0,1,.6-.18,1,1,0,0,1,.67.23.83.83,0,0,1,.26.65,1.75,1.75,0,0,1-.29.85,3.45,3.45,0,0,1-.87.95,4.7,4.7,0,0,1-1.45.74,6.27,6.27,0,0,1-2,.3,5.34,5.34,0,0,1-4-1.49,5.5,5.5,0,0,1-1.45-4,6.63,6.63,0,0,1,.36-2.22,4.7,4.7,0,0,1,1-1.76,4.41,4.41,0,0,1,1.68-1.13,6.09,6.09,0,0,1,2.22-.39,5.2,5.2,0,0,1,2.72.67,4.28,4.28,0,0,1,1.7,1.73,4.53,4.53,0,0,1,.57,2.16,1.34,1.34,0,0,1-.59,1.32A3.66,3.66,0,0,1,109.58,15.92Zm-5.3-1.53h4.91a3.33,3.33,0,0,0-.75-2.08,2.23,2.23,0,0,0-1.71-.69,2.19,2.19,0,0,0-1.66.7A3.57,3.57,0,0,0,104.28,14.39Z" transform="translate(-1.59 -2.16)" fill="#489bd5"/><path d="M122.8,17.22a3.27,3.27,0,0,1-.55,1.92,3.31,3.31,0,0,1-1.61,1.21,7.29,7.29,0,0,1-2.59.41,6.5,6.5,0,0,1-2.5-.44A3.63,3.63,0,0,1,114,19.2a2.26,2.26,0,0,1-.5-1.34,1.07,1.07,0,0,1,.32-.77,1.09,1.09,0,0,1,.8-.31,1,1,0,0,1,.66.21,2.18,2.18,0,0,1,.43.58,3,3,0,0,0,1,1.08,3,3,0,0,0,1.58.36,2.29,2.29,0,0,0,1.33-.36,1,1,0,0,0,.52-.83,1.12,1.12,0,0,0-.54-1,6.6,6.6,0,0,0-1.78-.63,13.85,13.85,0,0,1-2.27-.73,3.7,3.7,0,0,1-1.4-1,2.32,2.32,0,0,1-.53-1.54,2.65,2.65,0,0,1,.49-1.53,3.28,3.28,0,0,1,1.43-1.16,5.43,5.43,0,0,1,2.28-.43,7.32,7.32,0,0,1,1.89.22,4.65,4.65,0,0,1,1.4.58,2.91,2.91,0,0,1,.85.82,1.51,1.51,0,0,1,.29.87A1,1,0,0,1,122,13a1.23,1.23,0,0,1-.89.3,1.06,1.06,0,0,1-.7-.24,4.73,4.73,0,0,1-.67-.71,2.46,2.46,0,0,0-.73-.64,2.26,2.26,0,0,0-1.13-.24,2.21,2.21,0,0,0-1.22.32.89.89,0,0,0-.48.77.85.85,0,0,0,.35.7,2.65,2.65,0,0,0,1,.45c.4.12,1,.27,1.66.44a9.34,9.34,0,0,1,2.06.73,3.53,3.53,0,0,1,1.21,1A2.27,2.27,0,0,1,122.8,17.22Z" transform="translate(-1.59 -2.16)" fill="#489bd5"/><path d="M125.24,10h.29V8.37c0-.43,0-.78,0-1a1.55,1.55,0,0,1,.19-.64,1.17,1.17,0,0,1,.46-.45,1.26,1.26,0,0,1,.66-.18,1.3,1.3,0,0,1,.93.39,1.12,1.12,0,0,1,.36.63,5.74,5.74,0,0,1,.07,1.05V10h1a1.29,1.29,0,0,1,.88.27.89.89,0,0,1,.3.7.77.77,0,0,1-.43.76,2.73,2.73,0,0,1-1.23.22h-.51v5c0,.42,0,.74,0,1a1,1,0,0,0,.24.56.83.83,0,0,0,.63.21,4,4,0,0,0,.65-.08,3.12,3.12,0,0,1,.63-.09.84.84,0,0,1,.59.26.88.88,0,0,1,.26.65,1.07,1.07,0,0,1-.71,1,4.7,4.7,0,0,1-2,.35,3.61,3.61,0,0,1-1.93-.42,2,2,0,0,1-.85-1.18,7.86,7.86,0,0,1-.21-2V12h-.35a1.25,1.25,0,0,1-.89-.28.94.94,0,0,1,0-1.4A1.42,1.42,0,0,1,125.24,10Z" transform="translate(-1.59 -2.16)" fill="#489bd5"/><rect x="0.35" y="6.12" width="17.72" height="12.41" stroke="#b6b334" stroke-miterlimit="10" stroke-width="0.5" fill="url(#a)"/><path d="M19.55,7.44H1.84c0-2.78,4-5,8.86-5S19.55,4.66,19.55,7.44Z" transform="translate(-1.59 -2.16)" stroke="#b6b334" stroke-miterlimit="10" stroke-width="0.5" fill="url(#b)"/><path d="M11.82,12.26a1.11,1.11,0,0,1-.62,1v1.52a.45.45,0,0,1-.45.45h0a.45.45,0,0,1-.44-.45V13.24a1.09,1.09,0,1,1,1.55-1Z" transform="translate(-1.59 -2.16)" fill="#fff" stroke="#b6b334" stroke-miterlimit="10" stroke-width="0.5"/></svg>