<?xml version="1.0" encoding="utf-8"?>
<!-- Generator: Adobe Illustrator 24.3.0, SVG Export Plug-In . SVG Version: 6.00 Build 0)  -->
<svg version="1.1" id="Layer_1" xmlns="http://www.w3.org/2000/svg" xmlns:xlink="http://www.w3.org/1999/xlink" x="0px" y="0px"
	 viewBox="0 0 132.77 22.41" style="enable-background:new 0 0 132.77 22.41;" xml:space="preserve">
<style type="text/css">
	.st0{fill:#489BD5;}
	.st1{font-family:'ArialRoundedMTBold';}
	.st2{font-size:20.2985px;}
	.st3{fill:url(#XMLID_5_);stroke:#B6B334;stroke-width:0.5;stroke-miterlimit:10;}
	.st4{fill:url(#XMLID_6_);stroke:#B6B334;stroke-width:0.5;stroke-miterlimit:10;}
	.st5{fill:#FFFFFF;stroke:#B6B334;stroke-width:0.5;stroke-miterlimit:10;}
</style>
<text id="XMLID_1_" transform="matrix(1 0 0 1 26.8167 20.5136)" class="st0 st1 st2">GoldChest</text>
<g id="XMLID_2_">
	<linearGradient id="XMLID_5_" gradientUnits="userSpaceOnUse" x1="18.4648" y1="5.5034" x2="-0.5841" y2="27.8588">
		<stop  offset="0.1485" style="stop-color:#E9B843"/>
		<stop  offset="0.323" style="stop-color:#E3B439"/>
		<stop  offset="0.5466" style="stop-color:#FDD35C"/>
		<stop  offset="0.6601" style="stop-color:#F9E76E"/>
		<stop  offset="0.8128" style="stop-color:#F5EF8D"/>
		<stop  offset="1" style="stop-color:#F9F3A4"/>
	</linearGradient>
	<rect id="XMLID_3_" x="1.94" y="8.29" class="st3" width="17.72" height="12.41"/>
	<linearGradient id="XMLID_6_" gradientUnits="userSpaceOnUse" x1="5.3131" y1="8.287" x2="24.1249" y2="0.7617">
		<stop  offset="0.0677" style="stop-color:#E9B843"/>
		<stop  offset="0.323" style="stop-color:#E3B439"/>
		<stop  offset="0.5466" style="stop-color:#FDD35C"/>
		<stop  offset="0.6601" style="stop-color:#F9E76E"/>
		<stop  offset="0.8128" style="stop-color:#F5EF8D"/>
		<stop  offset="1" style="stop-color:#F9F3A4"/>
	</linearGradient>
	<path id="XMLID_12_" class="st4" d="M19.55,7.44H1.84c0-2.77,3.96-5.02,8.85-5.02C15.58,2.41,19.55,4.66,19.55,7.44z"/>
	<path id="XMLID_13_" class="st5" d="M11.82,12.26c0,0.43-0.25,0.81-0.62,0.98v1.53c0,0.24-0.2,0.44-0.44,0.44h-0.05
		c-0.24,0-0.44-0.2-0.44-0.44v-1.53c-0.37-0.17-0.62-0.55-0.62-0.98c0-0.6,0.49-1.08,1.08-1.08C11.33,11.17,11.82,11.66,11.82,12.26
		z"/>
</g>
</svg>
